<?xml version="1.0" standalone="no"?>
<!DOCTYPE svg PUBLIC "-//W3C//DTD SVG 20010904//EN"
 "http://www.w3.org/TR/2001/REC-SVG-20010904/DTD/svg10.dtd">
<svg version="1.0" xmlns="http://www.w3.org/2000/svg"
 width="100.000000pt" height="100.000000pt" viewBox="0 0 100.000000 100.000000"
 preserveAspectRatio="xMidYMid meet">
<metadata>
Created by potrace 1.14, written by Peter Selinger 2001-2017
</metadata>
<g transform="translate(0.000000,100.000000) scale(0.100000,-0.100000)"
fill="#000000" stroke="none">
<path d="M384 941 c-34 -10 -81 -29 -105 -43 -52 -31 -121 -98 -139 -136 -7
-15 -19 -39 -27 -54 -8 -17 -14 -58 -14 -106 0 -64 4 -87 25 -129 33 -64 83
-113 155 -149 31 -16 58 -30 60 -31 2 -1 -4 -23 -13 -49 -19 -57 -21 -108 -3
-122 6 -6 24 -13 39 -17 15 -4 30 -16 33 -26 5 -15 16 -19 49 -19 23 0 47 5
53 11 8 8 13 8 17 0 14 -21 77 -13 102 14 13 14 31 25 42 25 10 0 25 11 32 26
12 21 11 34 -4 91 -9 36 -16 66 -14 68 2 1 26 12 53 25 73 35 128 91 160 161
24 54 27 71 23 133 -3 45 -14 89 -29 121 -25 53 -104 145 -125 145 -7 0 -14 3
-16 8 -13 28 -164 73 -246 71 -26 0 -74 -8 -108 -18z m221 -27 c33 -8 64 -19
70 -25 5 -5 16 -9 25 -9 27 0 126 -102 151 -155 67 -144 11 -302 -131 -372
-57 -28 -163 -53 -221 -53 -49 0 -172 31 -216 53 -101 53 -153 137 -153 248 0
139 89 252 238 303 89 29 154 32 237 10z m-231 -669 c-4 -29 -2 -56 6 -75 7
-17 10 -34 6 -37 -10 -10 -40 11 -44 31 -4 17 27 126 35 126 2 0 1 -20 -3 -45z
m281 -16 c13 -44 15 -67 8 -78 -13 -21 -50 -22 -43 -1 3 8 5 43 5 78 -1 34 2
62 5 62 3 0 15 -28 25 -61z m-59 25 c3 -12 4 -35 2 -50 l-3 -29 -92 -3 -93 -3
0 53 0 53 90 0 c84 0 91 -2 96 -21z m-133 -131 c6 -33 -3 -46 -26 -37 -25 9
-23 64 2 64 12 0 20 -9 24 -27z m46 -5 c-1 -31 -1 -31 -8 -8 -5 14 -6 28 -4
33 9 15 13 6 12 -25z m81 2 c0 -16 -4 -30 -9 -30 -5 0 -16 -3 -25 -6 -12 -5
-16 1 -16 23 0 34 6 43 32 43 13 0 18 -8 18 -30z"/>
<path d="M700 819 c-74 -16 -95 -98 -39 -150 43 -40 101 -36 136 10 21 28 16
95 -9 118 -31 27 -47 31 -88 22z m45 -79 c-5 -8 -11 -8 -17 -2 -6 6 -7 16 -3
22 5 8 11 8 17 2 6 -6 7 -16 3 -22z"/>
<path d="M215 793 c-33 -36 -33 -80 0 -115 32 -35 67 -44 105 -28 43 18 53 35
52 88 0 59 -25 82 -88 82 -34 0 -48 -6 -69 -27z m97 -55 c-9 -9 -15 -9 -24 0
-10 10 -10 15 2 22 20 12 38 -6 22 -22z"/>
<path d="M456 464 c-3 -9 -6 -28 -6 -44 0 -49 9 -60 51 -60 42 0 59 18 59 64
0 46 -9 56 -55 56 -30 0 -45 -5 -49 -16z m70 -28 c7 -31 -1 -46 -27 -46 -14 0
-19 7 -19 28 0 48 35 61 46 18z"/>
</g>
</svg>
